<svg width="10" height="10" viewBox="0 0 10 10" fill="none" xmlns="http://www.w3.org/2000/svg">
<g clip-path="url(#clip0)">
<path d="M2.54005 0.159839L2.21021 0.487403C2.1072 0.590493 2.05045 0.727648 2.05045 0.874234C2.05045 1.02074 2.1072 1.15806 2.21021 1.26115L5.94699 4.99776L2.20606 8.73869C2.10305 8.84162 2.04639 8.97893 2.04639 9.12544C2.04639 9.27195 2.10305 9.40934 2.20606 9.51235L2.53387 9.84C2.74704 10.0533 3.09428 10.0533 3.30745 9.84L7.77749 5.38598C7.88042 5.28305 7.95294 5.1459 7.95294 4.99809L7.95294 4.99638C7.95294 4.8498 7.88034 4.71264 7.77749 4.60971L3.31957 0.159839C3.21664 0.0567484 3.07534 0.000163091 2.92883 1.05231e-08C2.78225 8.77504e-09 2.6429 0.0567484 2.54005 0.159839Z" fill="black"/>
</g>
<defs>
<clipPath id="clip0">
<rect width="10" height="10" fill="white" transform="translate(0 10) rotate(-90)"/>
</clipPath>
</defs>
</svg>
