<svg width="10" height="10" viewBox="0 0 10 10" fill="none" xmlns="http://www.w3.org/2000/svg">
<g clip-path="url(#clip0)">
<path d="M7.45995 9.84016L7.78979 9.5126C7.8928 9.40951 7.94955 9.27235 7.94955 9.12577C7.94955 8.97926 7.8928 8.84194 7.78979 8.73885L4.05301 5.00224L7.79394 1.26131C7.89695 1.15838 7.95361 1.02107 7.95361 0.87456C7.95361 0.728055 7.89695 0.590655 7.79394 0.487646L7.46613 0.160001C7.25296 -0.0533338 6.90572 -0.0533338 6.69255 0.160001L2.22251 4.61402C2.11958 4.71695 2.04706 4.8541 2.04706 5.00191L2.04706 5.00362C2.04706 5.1502 2.11966 5.28736 2.22251 5.39029L6.68043 9.84016C6.78336 9.94325 6.92466 9.99984 7.07117 10C7.21775 10 7.3571 9.94325 7.45995 9.84016Z" fill="black"/>
</g>
<defs>
<clipPath id="clip0">
<rect width="10" height="10" fill="white" transform="translate(10) rotate(90)"/>
</clipPath>
</defs>
</svg>
