<svg width="14" height="14" viewBox="0 0 14 14" fill="none" xmlns="http://www.w3.org/2000/svg">
<path d="M3.25874 4.50391H0.448218C0.323483 4.50391 0.222412 4.60502 0.222412 4.72971V13.7587C0.222412 13.8835 0.323483 13.9845 0.448218 13.9845H3.25874C3.38348 13.9845 3.48455 13.8835 3.48455 13.7587V4.72971C3.48455 4.60502 3.38348 4.50391 3.25874 4.50391Z" fill="#CCCCCC"/>
<path d="M1.85459 0.0153809C0.831961 0.0153809 0 0.846439 0 1.86794C0 2.8899 0.831961 3.72127 1.85459 3.72127C2.87641 3.72127 3.7077 2.88985 3.7077 1.86794C3.70774 0.846439 2.87641 0.0153809 1.85459 0.0153809Z" fill="#CCCCCC"/>
<path d="M10.4075 4.27954C9.27867 4.27954 8.44422 4.7648 7.9381 5.31617V4.72975C7.9381 4.60506 7.83703 4.50395 7.71229 4.50395H5.02073C4.89599 4.50395 4.79492 4.60506 4.79492 4.72975V13.7588C4.79492 13.8835 4.89599 13.9846 5.02073 13.9846H7.82511C7.94984 13.9846 8.05091 13.8835 8.05091 13.7588V9.2915C8.05091 7.78614 8.4598 7.19967 9.50917 7.19967C10.652 7.19967 10.7428 8.13984 10.7428 9.36895V13.7588C10.7428 13.8835 10.8439 13.9846 10.9686 13.9846H13.7741C13.8988 13.9846 13.9999 13.8835 13.9999 13.7588V8.80624C13.9999 6.56782 13.5731 4.27954 10.4075 4.27954Z" fill="#CCCCCC"/>
</svg>
