<svg width="9" height="7" viewBox="0 0 9 7" fill="none" xmlns="http://www.w3.org/2000/svg">
<path d="M8.85614 1.34351L8.56134 1.00846C8.46856 0.903817 8.34512 0.84617 8.21319 0.84617C8.08133 0.84617 7.95775 0.903817 7.86497 1.00846L4.50201 4.80435L1.13518 1.00424C1.04255 0.899605 0.918959 0.842041 0.787104 0.842041C0.655249 0.842041 0.53159 0.899605 0.438882 1.00424L0.144001 1.33724C-0.0480004 1.55378 -0.0480004 1.90651 0.144001 2.12306L4.15262 6.66382C4.24525 6.76837 4.36869 6.84204 4.50172 6.84204H4.50326C4.63518 6.84204 4.75862 6.76829 4.85126 6.66382L8.85614 2.13537C8.94893 2.03081 8.99985 1.88727 9 1.73845C9 1.58954 8.94893 1.44799 8.85614 1.34351Z" fill="white"/>
</svg>
