<svg width="9" height="7" viewBox="0 0 9 7" fill="none" xmlns="http://www.w3.org/2000/svg">
<path d="M0.143855 5.65649L0.438662 5.99154C0.531444 6.09618 0.654883 6.15383 0.786812 6.15383C0.918666 6.15383 1.04225 6.09618 1.13503 5.99154L4.49799 2.19565L7.86482 5.99576C7.95746 6.1004 8.08104 6.15796 8.2129 6.15796C8.34475 6.15796 8.46841 6.1004 8.56112 5.99576L8.856 5.66276C9.048 5.44622 9.048 5.09349 8.856 4.87694L4.84738 0.336183C4.75475 0.231627 4.63131 0.157959 4.49828 0.157959L4.49675 0.157959C4.36482 0.157959 4.24138 0.23171 4.14874 0.336183L0.143855 4.86463C0.0510741 4.96919 0.000146879 5.11273 0 5.26155C-1.30178e-08 5.41046 0.051074 5.55201 0.143855 5.65649Z" fill="white"/>
</svg>
