<svg width="26" height="26" viewBox="0 0 26 26" fill="none" xmlns="http://www.w3.org/2000/svg">
<path d="M22.2347 16.4405C20.8878 16.4405 19.5653 16.2298 18.312 15.8157C17.6979 15.6062 16.943 15.7984 16.5682 16.1833L14.0945 18.0507C11.2257 16.5193 9.45863 14.7528 7.94819 11.9056L9.76061 9.49633C10.2315 9.02608 10.4004 8.33915 10.198 7.69462C9.7821 6.43478 9.57081 5.11289 9.57081 3.76539C9.57086 2.79194 8.77892 2 7.80554 2H3.76533C2.79194 2 2 2.79194 2 3.76533C2 14.9229 11.0772 24 22.2347 24C23.2081 24 24.0001 23.2081 24.0001 22.2347V18.2058C24 17.2324 23.2081 16.4405 22.2347 16.4405Z" fill="#33C0CB"/>
</svg>
