<svg width="26" height="26" viewBox="0 0 26 26" fill="none" xmlns="http://www.w3.org/2000/svg">
<path fill-rule="evenodd" clip-rule="evenodd" d="M18.5352 4.16919C20.7894 4.74713 21.6517 6.20346 22.7327 8.20792H18.5352V4.16919ZM5.36139 8.37624C5.80275 8.37624 6.12311 8.61162 6.12311 9.16172C6.12311 9.62568 5.78331 10.002 5.36357 10.0033H0.761719C0.340988 10.0033 0 10.3803 0 10.8449C0 11.3097 0.340988 11.6865 0.761719 11.6865H7.61719C8.04189 11.6865 8.38188 12.063 8.38188 12.5281C8.38188 12.9929 8.04089 13.3696 7.62016 13.3696H0.761719C0.340988 13.3696 0 13.7464 0 14.2112C0 14.6761 0.340988 15.0528 0.761719 15.0528H2.4375V17.5776C2.4375 18.0424 2.77849 18.4191 3.19922 18.4191H4.73039C5.00334 19.9046 6.19135 21 7.5918 21C8.99225 21 10.1803 19.9046 10.4532 18.4191H18.1874C18.4604 19.9046 19.6484 21 21.0488 21C22.4493 21 23.6373 19.9046 23.9102 18.4191H25.2383C25.659 18.4191 26 18.0424 26 17.5776V12.5281C26 10.0587 23.6426 9.89481 23.6405 9.89109H17.7734C17.3527 9.89109 17.0117 9.51435 17.0117 9.04951V4H3.19922C2.77849 4 2.4375 4.37674 2.4375 4.84158V6.69307H1.52344C1.10271 6.69307 0.761719 7.06981 0.761719 7.53465C0.761719 7.9995 1.10271 8.37624 1.52344 8.37624H5.36139ZM22.0363 16.6829C22.5816 17.2854 22.5816 18.2627 22.0363 18.8651C21.1591 19.8343 19.6523 19.1448 19.6523 17.7739C19.6523 16.4033 21.1591 15.7138 22.0363 16.6829ZM8.57925 16.6829C9.12456 17.2854 9.12456 18.2627 8.57925 18.8651C7.70209 19.8343 6.19531 19.1448 6.19531 17.7739C6.19531 16.4033 7.70209 15.7138 8.57925 16.6829Z" fill="white"/>
</svg>
