<svg width="26" height="26" viewBox="0 0 26 26" fill="none" xmlns="http://www.w3.org/2000/svg">
<path d="M2.5 13.7356V22.7356C2.5 23.5636 3.1735 24.2356 4 24.2356H11.5V13.7356H2.5Z" fill="#33C0CB"/>
<path d="M23.5 7.73553H18.754C19.0945 7.50303 19.387 7.27203 19.591 7.06503C20.8015 5.84853 20.8015 3.86853 19.591 2.65203C18.415 1.46703 16.366 1.47003 15.1915 2.65203C14.5405 3.30453 12.8155 5.96103 13.054 7.73553H12.946C13.183 5.96103 11.458 3.30453 10.8085 2.65203C9.6325 1.47003 7.5835 1.47003 6.409 2.65203C5.2 3.86853 5.2 5.84853 6.4075 7.06503C6.613 7.27203 6.9055 7.50303 7.246 7.73553H2.5C1.6735 7.73553 1 8.40903 1 9.23553V11.4855C1 11.8995 1.336 12.2355 1.75 12.2355H11.5V9.23553H14.5V12.2355H24.25C24.664 12.2355 25 11.8995 25 11.4855V9.23553C25 8.40903 24.328 7.73553 23.5 7.73553ZM11.4115 7.68603C11.4115 7.68603 11.3485 7.73553 11.134 7.73553C10.0975 7.73553 8.119 6.65853 7.4725 6.00753C6.844 5.37453 6.844 4.34253 7.4725 3.70953C7.777 3.40353 8.1805 3.23553 8.6095 3.23553C9.037 3.23553 9.4405 3.40353 9.745 3.70953C10.756 4.72653 11.761 7.32453 11.4115 7.68603ZM14.8645 7.73553C14.6515 7.73553 14.5885 7.68753 14.5885 7.68603C14.239 7.32453 15.244 4.72653 16.255 3.70953C16.8595 3.09903 17.917 3.09603 18.5275 3.70953C19.1575 4.34253 19.1575 5.37453 18.5275 6.00753C17.881 6.65853 15.9025 7.73553 14.8645 7.73553Z" fill="#33C0CB"/>
<path d="M14.5 13.7356V24.2356H22C22.828 24.2356 23.5 23.5636 23.5 22.7356V13.7356H14.5Z" fill="#33C0CB"/>
</svg>
