<svg width="25" height="25" viewBox="0 0 25 25" fill="none" xmlns="http://www.w3.org/2000/svg">
<path fill-rule="evenodd" clip-rule="evenodd" d="M23.7068 5.62443H1.29313C0.817113 5.62443 0.431122 5.23844 0.431122 4.76243C0.431122 4.28641 0.817113 3.90042 1.29313 3.90042H23.7068C24.183 3.90042 24.569 4.28641 24.569 4.76243C24.569 5.23844 24.183 5.62443 23.7068 5.62443Z" fill="black"/>
<path d="M23.7068 6.05553H1.29313C0.580097 6.05553 0 5.47544 0 4.7624C0 4.04937 0.580097 3.46927 1.29313 3.46927H23.7068C24.4198 3.46927 24.9999 4.04937 24.9999 4.7624C24.9999 5.47544 24.4198 6.05553 23.7068 6.05553ZM1.29313 4.33127C1.05562 4.33127 0.862006 4.52489 0.862006 4.7624C0.862006 4.99992 1.05562 5.19353 1.29313 5.19353H23.7068C23.9445 5.19353 24.1379 4.99992 24.1379 4.7624C24.1379 4.52489 23.9445 4.33127 23.7068 4.33127H1.29313Z" fill="black"/>
<path fill-rule="evenodd" clip-rule="evenodd" d="M23.7068 12.9521H1.29313C0.817113 12.9521 0.431122 12.5661 0.431122 12.0901C0.431122 11.6138 0.817113 11.2278 1.29313 11.2278H23.7068C24.183 11.2278 24.569 11.6138 24.569 12.0901C24.569 12.5661 24.183 12.9521 23.7068 12.9521Z" fill="black"/>
<path d="M23.7068 13.3832H1.29313C0.580097 13.3832 0 12.8031 0 12.0901C0 11.377 0.580097 10.7969 1.29313 10.7969H23.7068C24.4198 10.7969 24.9999 11.377 24.9999 12.0901C24.9999 12.8031 24.4198 13.3832 23.7068 13.3832ZM1.29313 11.6589C1.05562 11.6589 0.862006 11.8523 0.862006 12.0901C0.862006 12.3276 1.05562 12.5209 1.29313 12.5209H23.7068C23.9445 12.5209 24.1379 12.3276 24.1379 12.0901C24.1379 11.8523 23.9445 11.6589 23.7068 11.6589H1.29313Z" fill="black"/>
<path fill-rule="evenodd" clip-rule="evenodd" d="M23.7068 20.2798H1.29313C0.817113 20.2798 0.431122 19.8938 0.431122 19.4175C0.431122 18.9415 0.817113 18.5555 1.29313 18.5555H23.7068C24.183 18.5555 24.569 18.9415 24.569 19.4175C24.569 19.8938 24.183 20.2798 23.7068 20.2798Z" fill="black"/>
<path d="M23.7068 20.7107H1.29313C0.580097 20.7107 0 20.1306 0 19.4175C0 18.7045 0.580097 18.1244 1.29313 18.1244H23.7068C24.4198 18.1244 24.9999 18.7045 24.9999 19.4175C24.9999 20.1306 24.4198 20.7107 23.7068 20.7107ZM1.29313 18.9866C1.05562 18.9866 0.862006 19.18 0.862006 19.4175C0.862006 19.6553 1.05562 19.8486 1.29313 19.8486H23.7068C23.9445 19.8486 24.1379 19.6553 24.1379 19.4175C24.1379 19.18 23.9445 18.9866 23.7068 18.9866H1.29313Z" fill="black"/>
</svg>
