<svg width="10" height="10" viewBox="0 0 10 10" fill="none" xmlns="http://www.w3.org/2000/svg">
<mask id="path-1-inside-1" fill="white">
<path d="M9.91281 4.10481L7.67936 6.395L8.20439 9.63629C8.25064 9.89493 7.97021 10.0843 7.74603 9.96168L5.00005 8.43906V0C5.11672 0 5.2334 0.0542302 5.2834 0.166862L6.66264 3.10781L9.73364 3.57502C9.99032 3.62091 10.0849 3.92335 9.91281 4.10481Z"/>
<path d="M5.00005 0V8.43906L2.25407 9.96168C2.03364 10.0856 1.74904 9.89786 1.79571 9.6363L2.32074 6.395L0.0872844 4.10481C-0.0848081 3.92335 0.00936356 3.62091 0.266461 3.57502L3.33746 3.10781L4.7167 0.16686C4.7667 0.0542281 4.88338 0 5.00005 0Z"/>
</mask>
<path d="M9.91281 4.10481L7.67936 6.395L8.20439 9.63629C8.25064 9.89493 7.97021 10.0843 7.74603 9.96168L5.00005 8.43906V0C5.11672 0 5.2334 0.0542302 5.2834 0.166862L6.66264 3.10781L9.73364 3.57502C9.99032 3.62091 10.0849 3.92335 9.91281 4.10481Z" fill="#FFC107"/>
<path d="M5.00005 0V8.43906L2.25407 9.96168C2.03364 10.0856 1.74904 9.89786 1.79571 9.6363L2.32074 6.395L0.0872844 4.10481C-0.0848081 3.92335 0.00936356 3.62091 0.266461 3.57502L3.33746 3.10781L4.7167 0.16686C4.7667 0.0542281 4.88338 0 5.00005 0Z" fill="#FFC107"/>
<path d="M15.6667 8.43906V0H-5.66662V8.43906H15.6667ZM9.91281 4.10481L25.1857 18.9994L25.2897 18.8928L25.3921 18.7848L9.91281 4.10481ZM7.67936 6.395L-7.59356 -8.4996L-15.0982 -0.804352L-13.3795 9.80613L7.67936 6.395ZM8.20439 9.63629L-12.8545 13.0474L-12.8265 13.2198L-12.7958 13.3918L8.20439 9.63629ZM7.74603 9.96168L-2.59916 28.6188L-2.54611 28.6482L-2.4929 28.6773L7.74603 9.96168ZM5.00005 8.43906L15.3452 -10.2181L5.00005 -15.9544L-5.34515 -10.2181L5.00005 8.43906ZM5.2834 0.166862L-14.2148 8.82304L-14.1252 9.025L-14.0314 9.22506L5.2834 0.166862ZM6.66264 3.10781L-12.6521 12.166L-7.81306 22.4843L3.45396 24.1985L6.66264 3.10781ZM9.73364 3.57502L13.4879 -17.4254L13.2157 -17.474L12.9423 -17.5156L9.73364 3.57502ZM2.25407 9.96168L-8.09113 -8.69544L-8.14502 -8.66556L-8.19873 -8.63537L2.25407 9.96168ZM1.79571 9.6363L22.7973 13.3836L22.8273 13.2157L22.8546 13.0474L1.79571 9.6363ZM2.32074 6.395L23.3796 9.80612L25.0983 -0.804344L17.5937 -8.49959L2.32074 6.395ZM0.0872844 4.10481L-15.392 18.7848L-15.2896 18.8928L-15.1856 18.9994L0.0872844 4.10481ZM0.266461 3.57502L-2.94223 -17.5156L-3.21264 -17.4745L-3.4819 -17.4264L0.266461 3.57502ZM3.33746 3.10781L6.54615 24.1985L17.8132 22.4843L22.6522 12.166L3.33746 3.10781ZM4.7167 0.16686L24.0315 9.22506L24.1253 9.02499L24.215 8.82303L4.7167 0.16686ZM-5.36011 -10.7898L-7.59356 -8.4996L22.9523 21.2896L25.1857 18.9994L-5.36011 -10.7898ZM-13.3795 9.80613L-12.8545 13.0474L29.2632 6.22516L28.7382 2.98387L-13.3795 9.80613ZM-12.7958 13.3918C-16.077 -4.95613 3.36235 -16.7537 17.985 -8.75397L-2.4929 28.6773C12.5781 36.9223 32.5782 24.746 29.2046 5.88082L-12.7958 13.3918ZM18.0912 -8.69545L15.3452 -10.2181L-5.34514 27.0962L-2.59916 28.6188L18.0912 -8.69545ZM5.00005 21.3333C-0.757067 21.3333 -9.91238 18.5145 -14.2148 8.82304L24.7817 -8.48931C20.3792 -18.406 10.9905 -21.3333 5.00005 -21.3333V21.3333ZM-14.0314 9.22506L-12.6521 12.166L25.9774 -5.95039L24.5982 -8.89134L-14.0314 9.22506ZM3.45396 24.1985L6.52495 24.6657L12.9423 -17.5156L9.87132 -17.9828L3.45396 24.1985ZM5.97938 24.5754C-10.4616 21.6363 -17.0921 1.57796 -5.56649 -10.5752L25.3921 18.7848C37.2619 6.26873 30.4422 -14.3944 13.4879 -17.4254L5.97938 24.5754ZM-5.34515 -10.2181L-8.09113 -8.69544L12.5993 28.6188L15.3452 27.0962L-5.34515 -10.2181ZM-8.19873 -8.63537C6.5231 -16.91 26.0716 -4.96713 22.7973 13.3836L-19.2059 5.88901C-22.5736 24.7628 -2.45582 37.0812 12.7069 28.5587L-8.19873 -8.63537ZM22.8546 13.0474L23.3796 9.80612L-18.7381 2.98387L-19.2631 6.22517L22.8546 13.0474ZM17.5937 -8.49959L15.3602 -10.7898L-15.1856 18.9994L-12.9522 21.2896L17.5937 -8.49959ZM15.5666 -10.5752C27.0696 1.55416 20.4939 21.6353 4.01482 24.5765L-3.4819 -17.4264C-20.4751 -14.3935 -27.2392 6.29254 -15.392 18.7848L15.5666 -10.5752ZM3.47515 24.6657L6.54615 24.1985L0.128769 -17.9828L-2.94223 -17.5156L3.47515 24.6657ZM22.6522 12.166L24.0315 9.22506L-14.5981 -8.89134L-15.9773 -5.95039L22.6522 12.166ZM24.215 8.82303C19.9122 18.515 10.7565 21.3333 5.00005 21.3333V-21.3333C-0.989711 -21.3333 -10.3788 -18.4065 -14.7816 -8.48931L24.215 8.82303Z" fill="#FFC107" mask="url(#path-1-inside-1)"/>
</svg>
