<svg width="16" height="16" viewBox="0 0 16 16" fill="none" xmlns="http://www.w3.org/2000/svg">
<g clip-path="url(#clip0)">
<path d="M12.1667 16H3.83333C2.822 16 2 15.178 2 14.1666V5.16663C2 4.89063 2.224 4.66663 2.5 4.66663H13.5C13.776 4.66663 14 4.89063 14 5.16663V14.1666C14 15.178 13.178 16 12.1667 16ZM3 5.66663V14.1666C3 14.626 3.374 15 3.83333 15H12.1667C12.626 15 13 14.626 13 14.1666V5.66663H3Z" fill="#BBBBBB"/>
<path d="M14.8333 5.66666H1.16663C0.890626 5.66666 0.666626 5.44266 0.666626 5.16666V3.83333C0.666626 2.822 1.48863 2 2.49996 2H13.5C14.5113 2 15.3333 2.822 15.3333 3.83333V5.16666C15.3333 5.44266 15.1093 5.66666 14.8333 5.66666ZM1.66663 4.66666H14.3333V3.83333C14.3333 3.374 13.9593 3 13.5 3H2.49996C2.04063 3 1.66663 3.374 1.66663 3.83333V4.66666Z" fill="#BBBBBB"/>
<path d="M10.1667 3H5.83337C5.55737 3 5.33337 2.776 5.33337 2.5V1.16667C5.33337 0.523333 5.85671 0 6.50004 0H9.50003C10.1434 0 10.6667 0.523333 10.6667 1.16667V2.5C10.6667 2.776 10.4427 3 10.1667 3ZM6.33337 2H9.6667V1.16667C9.6667 1.07467 9.59203 1 9.50003 1H6.50004C6.40804 1 6.33337 1.07467 6.33337 1.16667V2Z" fill="#BBBBBB"/>
<path d="M5.16663 13.3334C4.89063 13.3334 4.66663 13.1094 4.66663 12.8334V7.83337C4.66663 7.55737 4.89063 7.33337 5.16663 7.33337C5.44263 7.33337 5.66663 7.55737 5.66663 7.83337V12.8334C5.66663 13.1094 5.44263 13.3334 5.16663 13.3334Z" fill="#BBBBBB"/>
<path d="M8 13.3334C7.724 13.3334 7.5 13.1094 7.5 12.8334V7.83337C7.5 7.55737 7.724 7.33337 8 7.33337C8.276 7.33337 8.5 7.55737 8.5 7.83337V12.8334C8.5 13.1094 8.276 13.3334 8 13.3334Z" fill="#BBBBBB"/>
<path d="M10.8334 13.3334C10.5574 13.3334 10.3334 13.1094 10.3334 12.8334V7.83337C10.3334 7.55737 10.5574 7.33337 10.8334 7.33337C11.1094 7.33337 11.3334 7.55737 11.3334 7.83337V12.8334C11.3334 13.1094 11.1094 13.3334 10.8334 13.3334Z" fill="#BBBBBB"/>
</g>
<defs>
<clipPath id="clip0">
<rect width="16" height="16" fill="white"/>
</clipPath>
</defs>
</svg>
